Coordinates
nRows=10
nColumns=24

# SIMM Motion File Header:
name Coordinates
datacolumns 24
datarows 10
otherdata 1
range 0.81533000000000000000 0.82433000000000001000

Units are S.I. units (second, meters, Newtons, ...)
Angles are in degrees.

endheader
time	pelvis_tx	pelvis_ty	pelvis_tz	pelvis_tilt	pelvis_list	pelvis_rotation	hip_flexion_r	hip_adduction_r	hip_rotation_r	knee_angle_r	ankle_angle_r	subtalar_angle_r	mtp_angle_r	hip_flexion_l	hip_adduction_l	hip_rotation_l	knee_angle_l	ankle_angle_l	subtalar_angle_l	mtp_angle_l	lumbar_extension	lumbar_bending	lumbar_rotation
      0.81533000000000000000	      1.39031988270548030000	      0.89114341008189146000	     -0.30832994389280904000	     -4.58301612478157060000	      0.15949905202834941000	      5.93865744529290840000	      9.52856505080524840000	      1.73252691396782250000	      5.72221538811197040000	    -11.97995975883635100000	      6.67298065726315580000	      0.00000000000000656293	     -0.00000000000006395637	     17.53353216292733700000	      0.50628134476155917000	     19.78227400548338700000	    -47.87900060456815500000	     -5.28284839300376510000	     -0.00000000000032411698	      0.00000000000043867912	     -4.72197272161176600000	     -2.36428495901475210000	      3.47415077008629770000
      0.81633000000000000000	      1.39137989791590890000	      0.89119668423464671000	     -0.30835228660235181000	     -4.59537057950898920000	      0.18855864277620496000	      5.91720416625921870000	      9.42275386764388580000	      1.71511146586160780000	      5.71137942797710000000	    -11.90778114036856600000	      6.69939375158853780000	      0.00000000000000639178	     -0.00000000000006395145	     17.61688839049211100000	      0.56540957064356512000	     19.82390049386411200000	    -47.68161440335254800000	     -5.15657006293591460000	     -0.00000000000032468015	      0.00000000000044049413	     -4.71640354620422020000	     -2.39334843499969980000	      3.50050407235839510000
      0.81733000000000000000	      1.39243900655879420000	      0.89124690711063381000	     -0.30837602083696175000	     -4.60764545913928810000	      0.21752653535257485000	      5.89572356012038320000	      9.31717098201553280000	      1.69763731425962440000	      5.69890492497698450000	    -11.83625316329005300000	      6.72577475412008940000	      0.00000000000000623067	     -0.00000000000006398970	     17.70016611646269000000	      0.62405670337598351000	     19.86388114101550100000	    -47.48313789877921900000	     -5.03115814163882560000	     -0.00000000000032524248	      0.00000000000044230690	     -4.71097641822797990000	     -2.42199776750060640000	      3.52675131990096440000
      0.81833000000000000000	      1.39349722825464450000	      0.89129406630358909000	     -0.30840111973806345000	     -4.61984258514749160000	      0.24639849725342169000	      5.87421405914388210000	      9.21181422301738270000	      1.68011898769107560000	      5.68484107677455790000	    -11.76536446941480200000	      6.75212657486676720000	      0.00000000000000606486	     -0.00000000000006398098	     17.78337422544149900000	      0.68221838778839572000	     19.90220893802473500000	    -47.28362094611070900000	     -4.90655435819780820000	     -0.00000000000032580445	      0.00000000000044412056	     -4.70568610724851850000	     -2.45023463740205120000	      3.55289309159333740000
      0.81933000000000000000	      1.39455458306399430000	      0.89133815010374484000	     -0.30842755630944602000	     -4.63196384954357750000	      0.27517026341526896000	      5.85267427967514210000	      9.10668148864154680000	      1.66257092819319530000	      5.66923785118004810000	    -11.69510363987613600000	      6.77845276604667200000	      0.00000000000000589770	     -0.00000000000006394858	     17.86652131135485900000	      0.73989039493493336000	     19.93887786787810200000	    -47.08311259002318400000	     -4.78270305459365550000	     -0.00000000000032636721	      0.00000000000044593460	     -4.70052721884983530000	     -2.47806077548107950000	      3.57892970537209410000
      0.82033000000000000000	      1.39561109141156600000	      0.89137914749640723000	     -0.30845530344108085000	     -4.64401121024111860000	      0.30383753973705974000	      5.83110303008935920000	      9.00177076423689830000	      1.64500747994915030000	      5.65214589223884190000	    -11.62545922688575400000	      6.80475750683804300000	      0.00000000000000571962	     -0.00000000000006388001	     17.94961567963227400000	      0.79706861976093646000	     19.97388289818579600000	    -46.88166103690840500000	     -4.65955125989451880000	     -0.00000000000032693025	      0.00000000000044775002	     -4.69549421922250690000	     -2.50547796104151340000	      3.60486121102207010000
      0.82133000000000000000	      1.39666677400799680000	      0.89141704816003930000	     -0.30848433393228475000	     -4.65598668627276440000	      0.33239600668358821000	      5.80949931875054480000	      8.89708014101640820000	      1.62744287796427510000	      5.63361642587672670000	    -11.55641978523548400000	      6.83104558881676560000	      0.00000000000000554305	     -0.00000000000006379986	     18.03266534957474600000	      0.85374907871229244000	     20.00721997382245100000	    -46.67931362724658600000	     -4.53704876333246250000	     -0.00000000000032749257	      0.00000000000044956588	     -4.69058146059472580000	     -2.53248802080966140000	      3.63068738250400450000
      0.82233000000000001000	      1.39772165177136260000	      0.89145184246399478000	     -0.30851462051520306000	     -4.66789235300875480000	      0.36084132288779458000	      5.78786236197735530000	      8.79260783451374730000	      1.60989123673397370000	      5.61370116553150480000	    -11.48797390380380500000	      6.85732240146898060000	      0.00000000000000537939	     -0.00000000000006376162	     18.11567805669768600000	      0.90992790734025730000	     20.03888600955715300000	    -46.47611680798768700000	     -4.41514818737566910000	     -0.00000000000032805460	      0.00000000000045138214	     -4.68578320670132520000	     -2.55909282783788240000	      3.65640771027550300000
      0.82333000000000001000	      1.39877574574852350000	      0.89148352146589760000	     -0.30854613587859792000	     -4.67973033737928020000	      0.38916912874997356000	      5.76619159201575910000	      8.68835220298863580000	      1.59236653890257120000	      5.59245221778749800000	    -11.42011023707318500000	      6.88359391771172740000	      0.00000000000000519880	     -0.00000000000006369038	     18.19866125504799500000	      0.96560135790510593000	     20.06887888267276700000	    -46.27211610494192200000	     -4.29380506079843900000	     -0.00000000000032861619	      0.00000000000045320011	     -4.68109365828601740000	     -2.58529430041686580000	      3.68202139360611680000
      0.82433000000000001000	      1.39982907703629020000	      0.89151207690866474000	     -0.30857885269192359000	     -4.69150281310059110000	      0.41737505003328773000	      5.74448666501810120000	      8.58431176578135440000	      1.57488262390950880000	      5.56992198801329690000	    -11.35281753665854000000	      6.90986667942061940000	      0.00000000000000499233	     -0.00000000000006358690	     18.28162211949555500000	      1.02076579698190370000	     20.09719742557365400000	    -46.06735609517879500000	     -4.17297789174899860000	     -0.00000000000032917679	      0.00000000000045501936	     -4.67650697863653790000	     -2.61109440099915570000	      3.70752733288538170000
